<svg id="Calque_1" data-name="Calque 1" xmlns="http://www.w3.org/2000/svg" viewBox="0 0 76 119"><defs><style>.cls-1,.cls-3{fill:none;stroke:#fff;stroke-miterlimit:10;stroke-width:2px;}.cls-2{fill:#fff;}.cls-3{stroke-linecap:round;}</style></defs><title>locatia-monochrome</title><circle class="cls-1" cx="37.51" cy="56.91" r="6.5"/><polygon class="cls-2" points="16.6 15.88 38.06 1.03 38.06 18.87 16.6 27.94 16.6 15.88"/><polygon class="cls-2" points="59.06 15.88 38.06 1.03 38.06 18.87 59.06 27.94 59.06 15.88"/><line class="cls-1" x1="23.47" y1="41.72" x2="52.18" y2="41.72"/><path class="cls-2" d="M1.81,117.09A3.4,3.4,0,0,1,1,114.55V103.88H3.8V114.1A1.09,1.09,0,0,0,5,115.33H9.46v2.53H4.31A3.53,3.53,0,0,1,1.81,117.09Z"/><path class="cls-2" d="M13.13,117.43a3.63,3.63,0,0,1-1.85-2.08,12.24,12.24,0,0,1-.63-4.46,12.09,12.09,0,0,1,.64-4.47,3.74,3.74,0,0,1,1.86-2.11,8,8,0,0,1,3.27-.56,8,8,0,0,1,3.27.56,3.72,3.72,0,0,1,1.85,2.11,12.59,12.59,0,0,1,.62,4.47,12.5,12.5,0,0,1-.62,4.46,3.66,3.66,0,0,1-1.85,2.08,8.19,8.19,0,0,1-3.27.54A8.29,8.29,0,0,1,13.13,117.43Zm5.09-2.32a2,2,0,0,0,.88-1.32,12.26,12.26,0,0,0,.26-2.9,12.68,12.68,0,0,0-.26-3,2,2,0,0,0-.88-1.31,3.76,3.76,0,0,0-1.8-.34,3.72,3.72,0,0,0-1.79.34,2.09,2.09,0,0,0-.9,1.32,11.56,11.56,0,0,0-.28,3,12.18,12.18,0,0,0,.26,2.91,2,2,0,0,0,.88,1.31,3.83,3.83,0,0,0,1.83.35A3.75,3.75,0,0,0,18.22,115.11Z"/><path class="cls-2" d="M26.09,117.42a3.67,3.67,0,0,1-1.65-2.12,13.31,13.31,0,0,1-.58-4.47,12.71,12.71,0,0,1,.59-4.34,3.9,3.9,0,0,1,1.69-2.15,6,6,0,0,1,2.82-.59,13.32,13.32,0,0,1,2.42.2,13.59,13.59,0,0,1,1.94.46v2.17a13.06,13.06,0,0,0-1.6-.23c-.69-.06-1.42-.09-2.17-.09a3.54,3.54,0,0,0-1.74.35,2,2,0,0,0-.88,1.32,11.72,11.72,0,0,0-.27,2.92,12.83,12.83,0,0,0,.24,2.89,2.1,2.1,0,0,0,.85,1.34,3.35,3.35,0,0,0,1.8.38,29.83,29.83,0,0,0,3.77-.19v2.16a14.71,14.71,0,0,1-4.4.54A6.2,6.2,0,0,1,26.09,117.42Z"/><path class="cls-2" d="M38.78,103.88h3.54l4.38,14H43.79l-.89-2.93H38.14l-.87,2.93H34.4Zm3.46,8.54-1.72-6.14-1.72,6.14Z"/><path class="cls-2" d="M50.21,106.39H46.38v-2.51H56.86v2.51H53v11.47h-2.8Z"/><path class="cls-2" d="M58.38,103.88h2.79v14H58.38Z"/><path class="cls-2" d="M67.08,103.88h3.54l4.38,14H72.09l-.89-2.93H66.44l-.87,2.93H62.7Zm3.46,8.54-1.72-6.14-1.72,6.14Z"/><path class="cls-3" d="M64.64,33.7C64.64,48.51,48,59,37.51,87.4"/><path class="cls-3" d="M10.38,33.7C10.38,48.51,27,59,37.51,87.4"/><path class="cls-3" d="M18.3,68.1c-9,3-15,7.92-15,13.55,0,9,15.3,16.38,34.17,16.38s34.17-7.34,34.17-16.38c0-5.63-5.93-10.6-15-13.55"/><rect class="cls-1" x="27.33" y="27.5" width="21" height="8"/><line class="cls-1" x1="37.83" y1="28" x2="37.83" y2="36"/></svg>