<svg id="locatia" data-name="locatia" xmlns="http://www.w3.org/2000/svg" xmlns:xlink="http://www.w3.org/1999/xlink" viewBox="0 0 76 119"><defs><style>.cls-1,.cls-11,.cls-2,.cls-5,.cls-7{fill:none;}.cls-11,.cls-2,.cls-7{stroke:#fff;}.cls-11,.cls-2,.cls-5,.cls-7{stroke-miterlimit:10;}.cls-2,.cls-5,.cls-7{stroke-width:2px;}.cls-3{fill:#8cc63f;}.cls-4{fill:#009245;}.cls-5{stroke:#8cc63f;}.cls-6{fill:#fff;}.cls-7{stroke-linecap:round;}.cls-8{isolation:isolate;}.cls-9{clip-path:url(#clip-path);}.cls-10{clip-path:url(#clip-path-2);}</style><clipPath id="clip-path"><rect class="cls-1" x="2.34" y="71.01" width="70.34" height="24.07"/></clipPath><clipPath id="clip-path-2"><polyline class="cls-1" points="2.34 95.07 2.34 71.01 72.68 71.01 72.68 95.07 2.34 95.07"/></clipPath></defs><title>Plan de travail 1</title><circle class="cls-2" cx="37.51" cy="56.89" r="6.5"/><polygon class="cls-3" points="16.6 15.86 38.06 1 38.06 18.84 16.6 27.91 16.6 15.86"/><polygon class="cls-4" points="59.06 15.86 38.06 1 38.06 18.84 59.06 27.91 59.06 15.86"/><line class="cls-5" x1="23.47" y1="41.69" x2="52.18" y2="41.69"/><path class="cls-6" d="M1.81,117.06A3.39,3.39,0,0,1,1,114.53V103.85H3.8v10.22A1.09,1.09,0,0,0,5,115.3H9.46v2.53H4.31A3.48,3.48,0,0,1,1.81,117.06Z"/><path class="cls-6" d="M13.13,117.4a3.63,3.63,0,0,1-1.85-2.08,12.24,12.24,0,0,1-.63-4.46,12.09,12.09,0,0,1,.64-4.47,3.75,3.75,0,0,1,1.86-2.1,7.86,7.86,0,0,1,3.27-.57,7.8,7.8,0,0,1,3.27.57,3.73,3.73,0,0,1,1.85,2.1,12.59,12.59,0,0,1,.62,4.47,12.5,12.5,0,0,1-.62,4.46,3.66,3.66,0,0,1-1.85,2.08,8.17,8.17,0,0,1-3.27.55A8.27,8.27,0,0,1,13.13,117.4Zm5.09-2.32a2,2,0,0,0,.88-1.32,12.2,12.2,0,0,0,.26-2.9,12.64,12.64,0,0,0-.26-3,2,2,0,0,0-.88-1.32,3.88,3.88,0,0,0-1.8-.34,3.84,3.84,0,0,0-1.79.34,2.09,2.09,0,0,0-.9,1.33,11.42,11.42,0,0,0-.28,3,12.18,12.18,0,0,0,.26,2.91,2,2,0,0,0,.88,1.31,3.71,3.71,0,0,0,1.83.35A3.63,3.63,0,0,0,18.22,115.08Z"/><path class="cls-6" d="M26.09,117.39a3.64,3.64,0,0,1-1.65-2.12,13.24,13.24,0,0,1-.58-4.46,12.73,12.73,0,0,1,.59-4.35,3.88,3.88,0,0,1,1.69-2.14,5.86,5.86,0,0,1,2.82-.6,14.28,14.28,0,0,1,2.42.2,15.1,15.1,0,0,1,1.94.46v2.17a13.43,13.43,0,0,0-1.6-.22c-.69-.06-1.42-.1-2.17-.1a3.54,3.54,0,0,0-1.74.35,2.09,2.09,0,0,0-.88,1.33,11.63,11.63,0,0,0-.27,2.91,12.83,12.83,0,0,0,.24,2.89,2.12,2.12,0,0,0,.85,1.35,3.46,3.46,0,0,0,1.8.37,32.15,32.15,0,0,0,3.77-.18v2.15a14.67,14.67,0,0,1-4.4.55A6.19,6.19,0,0,1,26.09,117.39Z"/><path class="cls-6" d="M38.78,103.85h3.54l4.38,14H43.79l-.89-2.92H38.14l-.87,2.92H34.4Zm3.46,8.54-1.72-6.14-1.72,6.14Z"/><path class="cls-6" d="M50.21,106.37H46.38v-2.52H56.86v2.52H53v11.46h-2.8Z"/><path class="cls-6" d="M58.38,103.85h2.79v14H58.38Z"/><path class="cls-6" d="M67.08,103.85h3.54l4.38,14H72.09l-.89-2.92H66.44l-.87,2.92H62.7Zm3.46,8.54-1.72-6.14-1.72,6.14Z"/><path class="cls-7" d="M64.64,33.68c0,14.8-16.63,25.3-27.13,53.7"/><path class="cls-7" d="M10.38,33.68c0,14.8,16.62,25.3,27.13,53.7"/><g class="cls-8"><g class="cls-9"><g class="cls-10"><path class="cls-3" d="M56.72,71a1,1,0,0,0-1,.52c-.17.39.12.82.64,1a34.52,34.52,0,0,1,10.52,4.19,10.58,10.58,0,0,1,2.8,2.58,4.67,4.67,0,0,1,1,2.72c0,1.49-.83,2.93-2.44,4.31-2.4,2.06-6.6,3.92-11.94,5.21a80.89,80.89,0,0,1-18.8,2.07c-9.3,0-17.72-1.37-23.72-3.53a23.14,23.14,0,0,1-7-3.75C5.16,84.9,4.34,83.46,4.34,82a4.64,4.64,0,0,1,.94-2.72,13.31,13.31,0,0,1,4.87-3.77,39.37,39.37,0,0,1,8.46-3c.53-.13.81-.56.64-1A1,1,0,0,0,18.3,71,1.63,1.63,0,0,0,18,71a36.5,36.5,0,0,0-11.22,4.5,12.2,12.2,0,0,0-3.25,3A5.74,5.74,0,0,0,2.34,82c0,1.93,1.08,3.73,2.94,5.3,2.77,2.38,7.25,4.29,12.81,5.66A83.81,83.81,0,0,0,37.5,95.07c9.57,0,18.24-1.4,24.6-3.69a24.68,24.68,0,0,0,7.64-4.11c1.85-1.57,2.94-3.37,2.94-5.3a5.89,5.89,0,0,0-1.19-3.42A14.78,14.78,0,0,0,66,74.23,42.5,42.5,0,0,0,57,71a1.45,1.45,0,0,0-.3,0"/></g></g></g><rect class="cls-11" x="27.33" y="27.48" width="21" height="8"/><line class="cls-11" x1="37.83" y1="27.98" x2="37.83" y2="35.98"/></svg>