<svg aria-hidden="true" style="position: absolute; width: 0; height: 0; overflow: hidden;" version="1.1" xmlns="http://www.w3.org/2000/svg" xmlns:xlink="http://www.w3.org/1999/xlink">
<defs>
<symbol id="valid" viewBox="0 0 24 24">
<title>valid</title>
<path d="M22 10.1c-0.6 0-1 0.4-1 1v0.9c0 5-4 9-9 9 0 0 0 0 0 0-5 0-9-4-9-9s4-9 9-9c0 0 0 0 0 0 1.3 0 2.5 0.3 3.7 0.8 0.5 0.2 1.1 0 1.3-0.5s0-1.1-0.5-1.3c-1.4-0.6-2.9-1-4.5-1 0 0 0 0 0 0-6.1 0-11 4.9-11 11s4.9 11 11 11c0 0 0 0 0 0 6.1 0 11-4.9 11-11v-0.9c0-0.6-0.4-1-1-1z"></path>
<path d="M9.7 10.3c-0.4-0.4-1-0.4-1.4 0s-0.4 1 0 1.4l3 3c0.2 0.2 0.4 0.3 0.7 0.3s0.5-0.1 0.7-0.3l10-10c0.4-0.4 0.4-1 0-1.4s-1-0.4-1.4 0l-9.3 9.3-2.3-2.3z"></path>
</symbol>
<symbol id="down" viewBox="0 0 24 24">
<title>down</title>
<path d="M18.7 8.3c-0.4-0.4-1-0.4-1.4 0l-5.3 5.3-5.3-5.3c-0.4-0.4-1-0.4-1.4 0s-0.4 1 0 1.4l6 6c0.2 0.2 0.5 0.3 0.7 0.3s0.5-0.1 0.7-0.3l6-6c0.4-0.4 0.4-1 0-1.4z"></path>
</symbol>
<symbol id="details" viewBox="0 0 24 24">
<title>details</title>
<path d="M18 3h-1c0-1.1-0.9-2-2-2h-6c-1.1 0-2 0.9-2 2h-1c-1.7 0-3 1.3-3 3v14c0 1.7 1.3 3 3 3h12c1.7 0 3-1.3 3-3v-14c0-1.7-1.3-3-3-3zM9 3h6v2h-6v-1c0 0 0 0 0 0s0 0 0 0v-1zM19 20c0 0.6-0.4 1-1 1h-12c-0.6 0-1-0.4-1-1v-14c0-0.6 0.4-1 1-1h1c0 1.1 0.9 2 2 2h6c1.1 0 2-0.9 2-2h1c0.6 0 1 0.4 1 1v14z"></path>
</symbol>
<symbol id="edit" viewBox="0 0 24 24">
<title>edit</title>
<path d="M20 13.7c-0.6 0-1 0.4-1 1v5.3c0 0.6-0.4 1-1 1h-14c-0.6 0-1-0.4-1-1v-14c0-0.6 0.4-1 1-1h5.3c0.6 0 1-0.4 1-1s-0.4-1-1-1h-5.3c-1.7 0-3 1.3-3 3v14c0 1.7 1.3 3 3 3h14c1.7 0 3-1.3 3-3v-5.3c0-0.6-0.4-1-1-1z"></path>
<path d="M22.7 5.3l-4-4c-0.4-0.4-1-0.4-1.4 0l-10 10c-0.2 0.2-0.3 0.4-0.3 0.7v4c0 0.6 0.4 1 1 1h4c0.3 0 0.5-0.1 0.7-0.3l10-10c0.4-0.4 0.4-1 0-1.4zM11.6 15h-2.6v-2.6l9-9 2.6 2.6-9 9z"></path>
</symbol>
<symbol id="headset" viewBox="0 0 24 24">
<title>headset</title>
<path d="M12 2c-5.5 0-10 4.5-10 10v7c0 1.7 1.3 3 3 3h1c1.7 0 3-1.3 3-3v-3c0-1.7-1.3-3-3-3h-2v-1c0-4.4 3.6-8 8-8s8 3.6 8 8v1h-2c-1.7 0-3 1.3-3 3v3c0 1.7 1.3 3 3 3h1c1.7 0 3-1.3 3-3v-7c0-5.5-4.5-10-10-10zM6 15c0.6 0 1 0.4 1 1v3c0 0.6-0.4 1-1 1h-1c-0.6 0-1-0.4-1-1v-4h2zM20 19c0 0.6-0.4 1-1 1h-1c-0.6 0-1-0.4-1-1v-3c0-0.6 0.4-1 1-1h2v4z"></path>
</symbol>
<symbol id="home" viewBox="0 0 24 24">
<title>home</title>
<path d="M21.6 8.2l-9-7c-0.4-0.3-0.9-0.3-1.2 0l-9 7c-0.3 0.2-0.4 0.5-0.4 0.8v11c0 1.7 1.3 3 3 3h14c1.7 0 3-1.3 3-3v-11c0-0.3-0.1-0.6-0.4-0.8zM14 21h-4v-8h4v8zM20 20c0 0.6-0.4 1-1 1h-3v-9c0-0.6-0.4-1-1-1h-6c-0.6 0-1 0.4-1 1v9h-3c-0.6 0-1-0.4-1-1v-10.5l8-6.2 8 6.2v10.5z"></path>
</symbol>
<symbol id="send" viewBox="0 0 24 24">
<title>send</title>
<path d="M22.7 1.3c-0.3-0.3-0.7-0.4-1.1-0.2l-19 9c-0.4 0.2-0.6 0.6-0.6 1s0.3 0.8 0.8 0.9l7.4 1.9 1.9 7.4c0.1 0.4 0.5 0.7 0.9 0.8 0 0 0.1 0 0.1 0 0.4 0 0.7-0.2 0.9-0.6l9-19c0.1-0.5 0-0.9-0.3-1.2zM13.3 18l-1.3-5.2c-0.1-0.4-0.4-0.6-0.7-0.7l-5.3-1.4 13.9-6.6-6.6 13.9z"></path>
</symbol>
<symbol id="add" viewBox="0 0 24 24">
<title>add</title>
<path d="M12 1c-6.1 0-11 4.9-11 11s4.9 11 11 11 11-4.9 11-11-4.9-11-11-11zM12 21c-5 0-9-4-9-9s4-9 9-9c5 0 9 4 9 9s-4 9-9 9z"></path>
<path d="M16 11h-3v-3c0-0.6-0.4-1-1-1s-1 0.4-1 1v3h-3c-0.6 0-1 0.4-1 1s0.4 1 1 1h3v3c0 0.6 0.4 1 1 1s1-0.4 1-1v-3h3c0.6 0 1-0.4 1-1s-0.4-1-1-1z"></path>
</symbol>
<symbol id="search" viewBox="0 0 24 24">
<title>search</title>
<path d="M21.7 20.3l-3.7-3.7c1.2-1.5 2-3.5 2-5.6 0-5-4-9-9-9s-9 4-9 9c0 5 4 9 9 9 2.1 0 4.1-0.7 5.6-2l3.7 3.7c0.2 0.2 0.5 0.3 0.7 0.3s0.5-0.1 0.7-0.3c0.4-0.4 0.4-1 0-1.4zM4 11c0-3.9 3.1-7 7-7s7 3.1 7 7c0 1.9-0.8 3.7-2 4.9 0 0 0 0 0 0s0 0 0 0c-1.3 1.3-3 2-4.9 2-4 0.1-7.1-3-7.1-6.9z"></path>
</symbol>
<symbol id="trash" viewBox="0 0 24 24">
<title>trash</title>
<path d="M21 5h-4v-1c0-1.7-1.3-3-3-3h-4c-1.7 0-3 1.3-3 3v1h-4c-0.6 0-1 0.4-1 1s0.4 1 1 1h1v13c0 1.7 1.3 3 3 3h10c1.7 0 3-1.3 3-3v-13h1c0.6 0 1-0.4 1-1s-0.4-1-1-1zM9 4c0-0.6 0.4-1 1-1h4c0.6 0 1 0.4 1 1v1h-6v-1zM18 20c0 0.6-0.4 1-1 1h-10c-0.6 0-1-0.4-1-1v-13h12v13z"></path>
</symbol>
<symbol id="user" viewBox="0 0 24 24">
<title>user</title>
<path d="M16 14h-8c-2.8 0-5 2.2-5 5v2c0 0.6 0.4 1 1 1s1-0.4 1-1v-2c0-1.7 1.3-3 3-3h8c1.7 0 3 1.3 3 3v2c0 0.6 0.4 1 1 1s1-0.4 1-1v-2c0-2.8-2.2-5-5-5z"></path>
<path d="M12 12c2.8 0 5-2.2 5-5s-2.2-5-5-5-5 2.2-5 5 2.2 5 5 5zM12 4c1.7 0 3 1.3 3 3s-1.3 3-3 3-3-1.3-3-3 1.3-3 3-3z"></path>
</symbol>
<symbol id="cancel" viewBox="0 0 24 24">
<title>cancel</title>
<path d="M12 1c-6.1 0-11 4.9-11 11s4.9 11 11 11 11-4.9 11-11-4.9-11-11-11zM12 21c-5 0-9-4-9-9s4-9 9-9c5 0 9 4 9 9s-4 9-9 9z"></path>
<path d="M15.7 8.3c-0.4-0.4-1-0.4-1.4 0l-2.3 2.3-2.3-2.3c-0.4-0.4-1-0.4-1.4 0s-0.4 1 0 1.4l2.3 2.3-2.3 2.3c-0.4 0.4-0.4 1 0 1.4 0.2 0.2 0.4 0.3 0.7 0.3s0.5-0.1 0.7-0.3l2.3-2.3 2.3 2.3c0.2 0.2 0.5 0.3 0.7 0.3s0.5-0.1 0.7-0.3c0.4-0.4 0.4-1 0-1.4l-2.3-2.3 2.3-2.3c0.4-0.4 0.4-1 0-1.4z"></path>
</symbol>
<symbol id="point" viewBox="0 0 20 20">
<title>point</title>
<path d="M10 3c-3.866 0-7 3.133-7 7 0 3.865 3.134 7 7 7s7-3.135 7-7c0-3.867-3.134-7-7-7z"></path>
</symbol>
</defs>
</svg>
